<svg xmlns="http://www.w3.org/2000/svg" width="10.225" height="13.421" viewBox="0 0 10.225 13.421">
  <path id="Icon_material-lock" data-name="Icon material-lock" d="M14.947,5.974h-.639V4.7a3.2,3.2,0,1,0-6.391,0V5.974H7.278A1.282,1.282,0,0,0,6,7.252v6.391a1.282,1.282,0,0,0,1.278,1.278h7.669a1.282,1.282,0,0,0,1.278-1.278V7.252A1.282,1.282,0,0,0,14.947,5.974Zm-3.834,5.752a1.278,1.278,0,1,1,1.278-1.278A1.282,1.282,0,0,1,11.113,11.725Zm1.981-5.752H9.131V4.7a1.981,1.981,0,1,1,3.962,0Z" transform="translate(-6 -1.5)" fill="#fff"/>
</svg>
