<svg xmlns="http://www.w3.org/2000/svg" width="13.421" height="13.421" viewBox="0 0 13.421 13.421">
  <g id="noun-logout-3806581" transform="translate(-116.666 -46.668)">
    <path id="Path_51839" data-name="Path 51839" d="M290.97,205.931l-1.313-1.313a.583.583,0,0,0-.825.825l.312.312h-4.913a.583.583,0,1,0,0,1.167h4.923l-.312.312a.583.583,0,1,0,.825.825l1.3-1.3a.583.583,0,0,0,0-.825Z" transform="translate(-161.054 -152.961)" fill="#fff"/>
    <path id="Path_51840" data-name="Path 51840" d="M121.359,53.378a.983.983,0,0,1,.31-.711,1.087,1.087,0,0,1,.747-.3h4.414v-3.02a2.623,2.623,0,0,0-.827-1.9,2.9,2.9,0,0,0-1.993-.787h-4.524a2.9,2.9,0,0,0-1.993.787,2.622,2.622,0,0,0-.827,1.9V57.4a2.623,2.623,0,0,0,.827,1.9,2.9,2.9,0,0,0,1.993.787h4.524A2.9,2.9,0,0,0,126,59.3a2.622,2.622,0,0,0,.827-1.9v-3.02h-4.414a1.086,1.086,0,0,1-.747-.3A.983.983,0,0,1,121.359,53.378Z" transform="translate(0)" fill="#fff"/>
  </g>
</svg>
