<?xml version="1.0" encoding="UTF-8" standalone="no"?> <svg width="24" height="24" viewBox="0 0 24 24" fill="none" xmlns="http://www.w3.org/2000/svg">
<path fill-rule="evenodd" clip-rule="evenodd" d="M11.2929 3.29289C11.6834 2.90237 12.3166 2.90237 12.7071 3.29289L15.7071 6.29289C16.0976 6.68342 16.0976 7.31658 15.7071 7.70711C15.3166 8.09763 14.6834 8.09763 14.2929 7.70711L13 6.41421V14C13 14.5523 12.5523 15 12 15C11.4477 15 11 14.5523 11 14V6.41421L9.70711 7.70711C9.31658 8.09763 8.68342 8.09763 8.29289 7.70711C7.90237 7.31658 7.90237 6.68342 8.29289 6.29289L11.2929 3.29289ZM1 13C1.55228 13 2 13.4477 2 14V18C2 18.5523 2.44772 19 3 19H21C21.5523 19 22 18.5523 22 18V14C22 13.4477 22.4477 13 23 13C23.5523 13 24 13.4477 24 14V18C24 19.6569 22.6569 21 21 21H3C1.34315 21 0 19.6569 0 18V14C0 13.4477 0.447715 13 1 13Z" fill="#acacac"/>
</svg>
